<?xml version="1.0" encoding="UTF-8" standalone="no"?>
<!DOCTYPE svg PUBLIC "-//W3C//DTD SVG 1.1//EN"
 "http://www.w3.org/Graphics/SVG/1.1/DTD/svg11.dtd">
<!-- Generated by graphviz version 2.38.0 (20140413.2041)
 -->
<!-- Title: dependencies Pages: 1 -->
<svg width="2552pt" height="496pt"
 viewBox="0.00 0.00 2552.00 496.00" xmlns="http://www.w3.org/2000/svg" xmlns:xlink="http://www.w3.org/1999/xlink">
<g id="graph0" class="graph" transform="scale(1 1) rotate(0) translate(4 492)">
<title>dependencies</title>
<polygon fill="white" stroke="none" points="-4,4 -4,-492 2548,-492 2548,4 -4,4"/>
<text text-anchor="start" x="1251.01" y="-42.4" font-family="sans-serif" font-weight="bold" font-size="14.00">Legend</text>
<polygon fill="#ffffb3" stroke="none" points="1038,-10 1038,-30 1058,-30 1058,-10 1038,-10"/>
<text text-anchor="start" x="1061.63" y="-15.4" font-family="sans-serif" font-size="14.00"> &#160;Declarations</text>
<polygon fill="#8dd3c7" stroke="none" points="1151,-10 1151,-30 1171,-30 1171,-10 1151,-10"/>
<text text-anchor="start" x="1174.73" y="-15.4" font-family="sans-serif" font-size="14.00"> &#160;Module</text>
<polygon fill="#80b1d3" stroke="none" points="1237,-10 1237,-30 1257,-30 1257,-10 1237,-10"/>
<text text-anchor="start" x="1260.78" y="-15.4" font-family="sans-serif" font-size="14.00"> &#160;Bootstrap</text>
<polygon fill="#fdb462" stroke="none" points="1334,-10 1334,-30 1354,-30 1354,-10 1334,-10"/>
<text text-anchor="start" x="1357.67" y="-15.4" font-family="sans-serif" font-size="14.00"> &#160;Providers</text>
<polygon fill="#fb8072" stroke="none" points="1430,-10 1430,-30 1450,-30 1450,-10 1430,-10"/>
<text text-anchor="start" x="1453.73" y="-15.4" font-family="sans-serif" font-size="14.00"> &#160;Exports</text>
<g id="clust1" class="cluster"><title>cluster_AppModule</title>
<polygon fill="none" stroke="black" stroke-dasharray="1,5" points="1225,-276 1225,-480 2402,-480 2402,-276 1225,-276"/>
</g>
<g id="clust2" class="cluster"><title>cluster_AppModule_declarations</title>
<polygon fill="none" stroke="black" points="2272,-284 2272,-336 2394,-336 2394,-284 2272,-284"/>
</g>
<g id="clust4" class="cluster"><title>cluster_AppModule_imports</title>
<polygon fill="none" stroke="black" points="1233,-284 1233,-336 2264,-336 2264,-284 1233,-284"/>
</g>
<g id="clust6" class="cluster"><title>cluster_AppModule_bootstrap</title>
<polygon fill="none" stroke="black" points="1797,-420 1797,-472 1921,-472 1921,-420 1797,-420"/>
</g>
<g id="clust8" class="cluster"><title>cluster_ChartDemoModule</title>
<polygon fill="none" stroke="black" stroke-dasharray="1,5" points="1057,-200 1057,-268 1695,-268 1695,-200 1057,-200"/>
</g>
<g id="clust9" class="cluster"><title>cluster_ChartDemoModule_declarations</title>
<polygon fill="none" stroke="black" points="1525,-208 1525,-260 1687,-260 1687,-208 1525,-208"/>
</g>
<g id="clust11" class="cluster"><title>cluster_ChartDemoModule_imports</title>
<polygon fill="none" stroke="black" points="1239,-208 1239,-260 1517,-260 1517,-208 1239,-208"/>
</g>
<g id="clust12" class="cluster"><title>cluster_ChartDemoModule_exports</title>
<polygon fill="none" stroke="black" points="1065,-208 1065,-260 1231,-260 1231,-208 1065,-208"/>
</g>
<g id="clust15" class="cluster"><title>cluster_ChartModule</title>
<polygon fill="none" stroke="black" stroke-dasharray="1,5" points="901,-70 901,-268 1049,-268 1049,-70 901,-70"/>
</g>
<g id="clust16" class="cluster"><title>cluster_ChartModule_declarations</title>
<polygon fill="none" stroke="black" points="913,-78 913,-130 1041,-130 1041,-78 913,-78"/>
</g>
<g id="clust19" class="cluster"><title>cluster_ChartModule_exports</title>
<polygon fill="none" stroke="black" points="909,-208 909,-260 1041,-260 1041,-208 909,-208"/>
</g>
<g id="clust22" class="cluster"><title>cluster_RebirthChartModule</title>
<polygon fill="none" stroke="black" stroke-dasharray="1,5" points="2410,-276 2410,-344 2536,-344 2536,-276 2410,-276"/>
</g>
<g id="clust25" class="cluster"><title>cluster_RebirthChartModule_exports</title>
<polygon fill="none" stroke="black" points="2418,-284 2418,-336 2528,-336 2528,-284 2418,-284"/>
</g>
<g id="clust28" class="cluster"><title>cluster_SharedModule</title>
<polygon fill="none" stroke="black" stroke-dasharray="1,5" points="8,-200 8,-412 893,-412 893,-200 8,-200"/>
</g>
<g id="clust29" class="cluster"><title>cluster_SharedModule_declarations</title>
<polygon fill="none" stroke="black" points="598,-208 598,-260 885,-260 885,-208 598,-208"/>
</g>
<g id="clust32" class="cluster"><title>cluster_SharedModule_imports</title>
<polygon fill="none" stroke="black" points="16,-208 16,-260 590,-260 590,-208 16,-208"/>
</g>
<g id="clust33" class="cluster"><title>cluster_SharedModule_exports</title>
<polygon fill="none" stroke="black" points="148,-352 148,-404 861,-404 861,-352 148,-352"/>
</g>
<!-- AppComponent -->
<g id="node1" class="node"><title>AppComponent</title>
<polygon fill="#ffffb3" stroke="black" points="2385.94,-328 2280.06,-328 2280.06,-292 2385.94,-292 2385.94,-328"/>
<text text-anchor="middle" x="2333" y="-305.8" font-family="Times,serif" font-size="14.00">AppComponent</text>
</g>
<!-- AppModule -->
<g id="node2" class="node"><title>AppModule</title>
<polygon fill="#8dd3c7" stroke="black" points="1900.66,-396 1897.66,-400 1876.66,-400 1873.66,-396 1817.34,-396 1817.34,-360 1900.66,-360 1900.66,-396"/>
<text text-anchor="middle" x="1859" y="-373.8" font-family="Times,serif" font-size="14.00">AppModule</text>
</g>
<!-- AppComponent&#45;&gt;AppModule -->
<g id="edge1" class="edge"><title>AppComponent&#45;&gt;AppModule</title>
<path fill="none" stroke="black" d="M2333,-328.248C2333,-351.018 2333,-387 2333,-387 2333,-387 1911.06,-387 1911.06,-387"/>
<polygon fill="black" stroke="black" points="1911.06,-383.5 1901.06,-387 1911.06,-390.5 1911.06,-383.5"/>
</g>
<!-- AppComponent  -->
<g id="node9" class="node"><title>AppComponent </title>
<polygon fill="#80b1d3" stroke="black" points="1913.44,-464 1804.56,-464 1804.56,-428 1913.44,-428 1913.44,-464"/>
<text text-anchor="middle" x="1859" y="-441.8" font-family="Times,serif" font-size="14.00">AppComponent </text>
</g>
<!-- AppModule&#45;&gt;AppComponent  -->
<g id="edge8" class="edge"><title>AppModule&#45;&gt;AppComponent </title>
<path fill="none" stroke="black" stroke-dasharray="1,5" d="M1859,-396.223C1859,-396.223 1859,-417.727 1859,-417.727"/>
<polygon fill="black" stroke="black" points="1855.5,-417.727 1859,-427.727 1862.5,-417.727 1855.5,-417.727"/>
</g>
<!-- BrowserModule -->
<g id="node3" class="node"><title>BrowserModule</title>
<polygon fill="#8dd3c7" stroke="black" points="2256.47,-328 2253.47,-332 2232.47,-332 2229.47,-328 2149.53,-328 2149.53,-292 2256.47,-292 2256.47,-328"/>
<text text-anchor="middle" x="2203" y="-305.8" font-family="Times,serif" font-size="14.00">BrowserModule</text>
</g>
<!-- BrowserModule&#45;&gt;AppModule -->
<g id="edge2" class="edge"><title>BrowserModule&#45;&gt;AppModule</title>
<path fill="none" stroke="black" d="M2203,-328.223C2203,-348.365 2203,-378 2203,-378 2203,-378 1910.84,-378 1910.84,-378"/>
<polygon fill="black" stroke="black" points="1910.84,-374.5 1900.84,-378 1910.84,-381.5 1910.84,-374.5"/>
</g>
<!-- RouterModule.forRoot(args) -->
<g id="node4" class="node"><title>RouterModule.forRoot(args)</title>
<polygon fill="#8dd3c7" stroke="black" points="2131.84,-328 2128.84,-332 2107.84,-332 2104.84,-328 1954.16,-328 1954.16,-292 2131.84,-292 2131.84,-328"/>
<text text-anchor="middle" x="2043" y="-305.8" font-family="Times,serif" font-size="14.00">RouterModule.forRoot(args)</text>
</g>
<!-- RouterModule.forRoot(args)&#45;&gt;AppModule -->
<g id="edge3" class="edge"><title>RouterModule.forRoot(args)&#45;&gt;AppModule</title>
<path fill="none" stroke="black" d="M2043,-328.023C2043,-345.373 2043,-369 2043,-369 2043,-369 1910.75,-369 1910.75,-369"/>
<polygon fill="black" stroke="black" points="1910.75,-365.5 1900.75,-369 1910.75,-372.5 1910.75,-365.5"/>
</g>
<!-- SharedModule.forRoot() -->
<g id="node5" class="node"><title>SharedModule.forRoot()</title>
<polygon fill="#8dd3c7" stroke="black" points="1936.29,-328 1933.29,-332 1912.29,-332 1909.29,-328 1781.71,-328 1781.71,-292 1936.29,-292 1936.29,-328"/>
<text text-anchor="middle" x="1859" y="-305.8" font-family="Times,serif" font-size="14.00">SharedModule.forRoot()</text>
</g>
<!-- SharedModule.forRoot()&#45;&gt;AppModule -->
<g id="edge4" class="edge"><title>SharedModule.forRoot()&#45;&gt;AppModule</title>
<path fill="none" stroke="black" d="M1859,-328.223C1859,-328.223 1859,-349.727 1859,-349.727"/>
<polygon fill="black" stroke="black" points="1855.5,-349.727 1859,-359.727 1862.5,-349.727 1855.5,-349.727"/>
</g>
<!-- RebirthChartModule.forRoot() -->
<g id="node6" class="node"><title>RebirthChartModule.forRoot()</title>
<polygon fill="#8dd3c7" stroke="black" points="1763.51,-328 1760.51,-332 1739.51,-332 1736.51,-328 1574.49,-328 1574.49,-292 1763.51,-292 1763.51,-328"/>
<text text-anchor="middle" x="1669" y="-305.8" font-family="Times,serif" font-size="14.00">RebirthChartModule.forRoot()</text>
</g>
<!-- RebirthChartModule.forRoot()&#45;&gt;AppModule -->
<g id="edge5" class="edge"><title>RebirthChartModule.forRoot()&#45;&gt;AppModule</title>
<path fill="none" stroke="black" d="M1669,-328.023C1669,-345.373 1669,-369 1669,-369 1669,-369 1807.3,-369 1807.3,-369"/>
<polygon fill="black" stroke="black" points="1807.3,-372.5 1817.3,-369 1807.3,-365.5 1807.3,-372.5"/>
</g>
<!-- RebirthUIModule.forRoot() -->
<g id="node7" class="node"><title>RebirthUIModule.forRoot()</title>
<polygon fill="#8dd3c7" stroke="black" points="1556.18,-328 1553.18,-332 1532.18,-332 1529.18,-328 1383.82,-328 1383.82,-292 1556.18,-292 1556.18,-328"/>
<text text-anchor="middle" x="1470" y="-305.8" font-family="Times,serif" font-size="14.00">RebirthUIModule.forRoot()</text>
</g>
<!-- RebirthUIModule.forRoot()&#45;&gt;AppModule -->
<g id="edge6" class="edge"><title>RebirthUIModule.forRoot()&#45;&gt;AppModule</title>
<path fill="none" stroke="black" d="M1470,-328.223C1470,-348.365 1470,-378 1470,-378 1470,-378 1807,-378 1807,-378"/>
<polygon fill="black" stroke="black" points="1807,-381.5 1817,-378 1807,-374.5 1807,-381.5"/>
</g>
<!-- ChartDemoModule -->
<g id="node8" class="node"><title>ChartDemoModule</title>
<polygon fill="#8dd3c7" stroke="black" points="1365.36,-328 1362.36,-332 1341.36,-332 1338.36,-328 1240.64,-328 1240.64,-292 1365.36,-292 1365.36,-328"/>
<text text-anchor="middle" x="1303" y="-305.8" font-family="Times,serif" font-size="14.00">ChartDemoModule</text>
</g>
<!-- ChartDemoModule&#45;&gt;AppModule -->
<g id="edge7" class="edge"><title>ChartDemoModule&#45;&gt;AppModule</title>
<path fill="none" stroke="black" d="M1303,-328.248C1303,-351.018 1303,-387 1303,-387 1303,-387 1807.21,-387 1807.21,-387"/>
<polygon fill="black" stroke="black" points="1807.21,-390.5 1817.21,-387 1807.21,-383.5 1807.21,-390.5"/>
</g>
<!-- ChartDemoComponent  -->
<g id="node13" class="node"><title>ChartDemoComponent </title>
<polygon fill="#fb8072" stroke="black" points="1223.15,-252 1072.85,-252 1072.85,-216 1223.15,-216 1223.15,-252"/>
<text text-anchor="middle" x="1148" y="-229.8" font-family="Times,serif" font-size="14.00">ChartDemoComponent </text>
</g>
<!-- ChartDemoModule&#45;&gt;ChartDemoComponent  -->
<g id="edge12" class="edge"><title>ChartDemoModule&#45;&gt;ChartDemoComponent </title>
<path fill="none" stroke="black" stroke-dasharray="5,2" d="M1240.4,-298C1197.38,-298 1148,-298 1148,-298 1148,-298 1148,-262.169 1148,-262.169"/>
<polygon fill="black" stroke="black" points="1151.5,-262.169 1148,-252.169 1144.5,-262.169 1151.5,-262.169"/>
</g>
<!-- ChartDemoComponent -->
<g id="node10" class="node"><title>ChartDemoComponent</title>
<polygon fill="#ffffb3" stroke="black" points="1679.15,-252 1532.85,-252 1532.85,-216 1679.15,-216 1679.15,-252"/>
<text text-anchor="middle" x="1606" y="-229.8" font-family="Times,serif" font-size="14.00">ChartDemoComponent</text>
</g>
<!-- ChartDemoComponent&#45;&gt;ChartDemoModule -->
<g id="edge9" class="edge"><title>ChartDemoComponent&#45;&gt;ChartDemoModule</title>
<path fill="none" stroke="black" d="M1544.51,-252.147C1544.51,-265.74 1544.51,-282 1544.51,-282 1544.51,-282 1321.61,-282 1321.61,-282 1321.61,-282 1321.61,-282.979 1321.61,-282.979"/>
<polygon fill="black" stroke="black" points="1318.11,-281.793 1321.61,-291.793 1325.11,-281.793 1318.11,-281.793"/>
</g>
<!-- CommonModule -->
<g id="node11" class="node"><title>CommonModule</title>
<polygon fill="#8dd3c7" stroke="black" points="1358.67,-252 1355.67,-256 1334.67,-256 1331.67,-252 1247.33,-252 1247.33,-216 1358.67,-216 1358.67,-252"/>
<text text-anchor="middle" x="1303" y="-229.8" font-family="Times,serif" font-size="14.00">CommonModule</text>
</g>
<!-- CommonModule&#45;&gt;ChartDemoModule -->
<g id="edge10" class="edge"><title>CommonModule&#45;&gt;ChartDemoModule</title>
<path fill="none" stroke="black" d="M1284.39,-252.011C1284.39,-252.011 1284.39,-281.855 1284.39,-281.855"/>
<polygon fill="black" stroke="black" points="1280.89,-281.855 1284.39,-291.855 1287.89,-281.855 1280.89,-281.855"/>
</g>
<!-- ChartModule -->
<g id="node15" class="node"><title>ChartModule</title>
<polygon fill="#8dd3c7" stroke="black" points="1031.15,-187 1028.15,-191 1007.15,-191 1004.15,-187 940.847,-187 940.847,-151 1031.15,-151 1031.15,-187"/>
<text text-anchor="middle" x="986" y="-164.8" font-family="Times,serif" font-size="14.00">ChartModule</text>
</g>
<!-- CommonModule&#45;&gt;ChartModule -->
<g id="edge14" class="edge"><title>CommonModule&#45;&gt;ChartModule</title>
<path fill="none" stroke="black" d="M1303,-215.977C1303,-198.627 1303,-175 1303,-175 1303,-175 1041.42,-175 1041.42,-175"/>
<polygon fill="black" stroke="black" points="1041.42,-171.5 1031.42,-175 1041.42,-178.5 1041.42,-171.5"/>
</g>
<!-- SharedModule -->
<g id="node20" class="node"><title>SharedModule</title>
<polygon fill="#8dd3c7" stroke="black" points="582.423,-328 579.423,-332 558.423,-332 555.423,-328 483.577,-328 483.577,-292 582.423,-292 582.423,-328"/>
<text text-anchor="middle" x="533" y="-305.8" font-family="Times,serif" font-size="14.00">SharedModule</text>
</g>
<!-- CommonModule&#45;&gt;SharedModule -->
<g id="edge20" class="edge"><title>CommonModule&#45;&gt;SharedModule</title>
<path fill="none" stroke="black" d="M1247.27,-234C1238.26,-234 1231.82,-234 1231.82,-234 1231.82,-234 1231.82,-313 1231.82,-313 1231.82,-313 592.418,-313 592.418,-313"/>
<polygon fill="black" stroke="black" points="592.418,-309.5 582.418,-313 592.418,-316.5 592.418,-309.5"/>
</g>
<!-- RebirthChartModule -->
<g id="node12" class="node"><title>RebirthChartModule</title>
<polygon fill="#8dd3c7" stroke="black" points="1509.15,-252 1506.15,-256 1485.15,-256 1482.15,-252 1376.85,-252 1376.85,-216 1509.15,-216 1509.15,-252"/>
<text text-anchor="middle" x="1443" y="-229.8" font-family="Times,serif" font-size="14.00">RebirthChartModule</text>
</g>
<!-- RebirthChartModule&#45;&gt;ChartDemoModule -->
<g id="edge11" class="edge"><title>RebirthChartModule&#45;&gt;ChartDemoModule</title>
<path fill="none" stroke="black" d="M1376.7,-234C1373.18,-234 1371.05,-234 1371.05,-234 1371.05,-234 1371.05,-310 1371.05,-310 1371.05,-310 1370.52,-310 1370.52,-310"/>
<polygon fill="black" stroke="black" points="1375.71,-306.5 1365.71,-310 1375.71,-313.5 1375.71,-306.5"/>
</g>
<!-- ChartModule  -->
<g id="node17" class="node"><title>ChartModule </title>
<polygon fill="#fb8072" stroke="black" points="2520.15,-328 2425.85,-328 2425.85,-292 2520.15,-292 2520.15,-328"/>
<text text-anchor="middle" x="2473" y="-305.8" font-family="Times,serif" font-size="14.00">ChartModule </text>
</g>
<!-- RebirthChartModule&#45;&gt;ChartModule  -->
<g id="edge17" class="edge"><title>RebirthChartModule&#45;&gt;ChartModule </title>
<path fill="none" stroke="black" stroke-dasharray="5,2" d="M1467.44,-252.207C1467.44,-257.555 1467.44,-262 1467.44,-262 1467.44,-262 2473,-262 2473,-262 2473,-262 2473,-281.853 2473,-281.853"/>
<polygon fill="black" stroke="black" points="2469.5,-281.853 2473,-291.853 2476.5,-281.853 2469.5,-281.853"/>
</g>
<!-- RebirthChartModule&#45;&gt;SharedModule -->
<g id="edge26" class="edge"><title>RebirthChartModule&#45;&gt;SharedModule</title>
<path fill="none" stroke="black" d="M1425.55,-252.11C1425.55,-261.897 1425.55,-272 1425.55,-272 1425.55,-272 549.275,-272 549.275,-272 549.275,-272 549.275,-281.89 549.275,-281.89"/>
<polygon fill="black" stroke="black" points="545.775,-281.89 549.275,-291.89 552.775,-281.89 545.775,-281.89"/>
</g>
<!-- ChartComponent -->
<g id="node14" class="node"><title>ChartComponent</title>
<polygon fill="#ffffb3" stroke="black" points="1033.44,-122 920.564,-122 920.564,-86 1033.44,-86 1033.44,-122"/>
<text text-anchor="middle" x="977" y="-99.8" font-family="Times,serif" font-size="14.00">ChartComponent</text>
</g>
<!-- ChartComponent&#45;&gt;ChartModule -->
<g id="edge13" class="edge"><title>ChartComponent&#45;&gt;ChartModule</title>
<path fill="none" stroke="black" d="M986,-122.106C986,-122.106 986,-140.991 986,-140.991"/>
<polygon fill="black" stroke="black" points="982.5,-140.991 986,-150.991 989.5,-140.991 982.5,-140.991"/>
</g>
<!-- ChartModule&#45;&gt;RebirthChartModule -->
<g id="edge16" class="edge"><title>ChartModule&#45;&gt;RebirthChartModule</title>
<path fill="none" stroke="black" d="M1031.49,-163C1147.08,-163 1443,-163 1443,-163 1443,-163 1443,-205.716 1443,-205.716"/>
<polygon fill="black" stroke="black" points="1439.5,-205.716 1443,-215.716 1446.5,-205.716 1439.5,-205.716"/>
</g>
<!-- ChartComponent  -->
<g id="node16" class="node"><title>ChartComponent </title>
<polygon fill="#fb8072" stroke="black" points="1032.93,-252 917.065,-252 917.065,-216 1032.93,-216 1032.93,-252"/>
<text text-anchor="middle" x="975" y="-229.8" font-family="Times,serif" font-size="14.00">ChartComponent </text>
</g>
<!-- ChartModule&#45;&gt;ChartComponent  -->
<g id="edge15" class="edge"><title>ChartModule&#45;&gt;ChartComponent </title>
<path fill="none" stroke="black" stroke-dasharray="5,2" d="M986,-187.106C986,-187.106 986,-205.991 986,-205.991"/>
<polygon fill="black" stroke="black" points="982.5,-205.991 986,-215.991 989.5,-205.991 982.5,-205.991"/>
</g>
<!-- DocComponent -->
<g id="node18" class="node"><title>DocComponent</title>
<polygon fill="#ffffb3" stroke="black" points="877.154,-252 772.846,-252 772.846,-216 877.154,-216 877.154,-252"/>
<text text-anchor="middle" x="825" y="-229.8" font-family="Times,serif" font-size="14.00">DocComponent</text>
</g>
<!-- DocComponent&#45;&gt;SharedModule -->
<g id="edge18" class="edge"><title>DocComponent&#45;&gt;SharedModule</title>
<path fill="none" stroke="black" d="M813.071,-252.292C813.071,-274.206 813.071,-308 813.071,-308 813.071,-308 592.426,-308 592.426,-308"/>
<polygon fill="black" stroke="black" points="592.426,-304.5 582.426,-308 592.426,-311.5 592.426,-304.5"/>
</g>
<!-- DocContentComponent -->
<g id="node19" class="node"><title>DocContentComponent</title>
<polygon fill="#ffffb3" stroke="black" points="754.486,-252 605.514,-252 605.514,-216 754.486,-216 754.486,-252"/>
<text text-anchor="middle" x="680" y="-229.8" font-family="Times,serif" font-size="14.00">DocContentComponent</text>
</g>
<!-- DocContentComponent&#45;&gt;SharedModule -->
<g id="edge19" class="edge"><title>DocContentComponent&#45;&gt;SharedModule</title>
<path fill="none" stroke="black" d="M609.545,-252.129C609.545,-272.572 609.545,-303 609.545,-303 609.545,-303 592.343,-303 592.343,-303"/>
<polygon fill="black" stroke="black" points="592.343,-299.5 582.343,-303 592.343,-306.5 592.343,-299.5"/>
</g>
<!-- CommonModule  -->
<g id="node26" class="node"><title>CommonModule </title>
<polygon fill="#fb8072" stroke="black" points="613.668,-396 498.332,-396 498.332,-360 613.668,-360 613.668,-396"/>
<text text-anchor="middle" x="556" y="-373.8" font-family="Times,serif" font-size="14.00">CommonModule </text>
</g>
<!-- SharedModule&#45;&gt;CommonModule  -->
<g id="edge27" class="edge"><title>SharedModule&#45;&gt;CommonModule </title>
<path fill="none" stroke="black" stroke-dasharray="5,2" d="M540.314,-328.223C540.314,-328.223 540.314,-349.727 540.314,-349.727"/>
<polygon fill="black" stroke="black" points="536.814,-349.727 540.314,-359.727 543.814,-349.727 536.814,-349.727"/>
</g>
<!-- FormsModule  -->
<g id="node27" class="node"><title>FormsModule </title>
<polygon fill="#fb8072" stroke="black" points="480.328,-396 381.672,-396 381.672,-360 480.328,-360 480.328,-396"/>
<text text-anchor="middle" x="431" y="-373.8" font-family="Times,serif" font-size="14.00">FormsModule </text>
</g>
<!-- SharedModule&#45;&gt;FormsModule  -->
<g id="edge28" class="edge"><title>SharedModule&#45;&gt;FormsModule </title>
<path fill="none" stroke="black" stroke-dasharray="5,2" d="M483.713,-324C477.528,-324 473.316,-324 473.316,-324 473.316,-324 473.316,-349.718 473.316,-349.718"/>
<polygon fill="black" stroke="black" points="469.817,-349.718 473.316,-359.718 476.817,-349.718 469.817,-349.718"/>
</g>
<!-- RouterModule  -->
<g id="node28" class="node"><title>RouterModule </title>
<polygon fill="#fb8072" stroke="black" points="363.652,-396 262.348,-396 262.348,-360 363.652,-360 363.652,-396"/>
<text text-anchor="middle" x="313" y="-373.8" font-family="Times,serif" font-size="14.00">RouterModule </text>
</g>
<!-- SharedModule&#45;&gt;RouterModule  -->
<g id="edge29" class="edge"><title>SharedModule&#45;&gt;RouterModule </title>
<path fill="none" stroke="black" stroke-dasharray="5,2" d="M483.598,-319C415.931,-319 302.712,-319 302.712,-319 302.712,-319 302.712,-349.977 302.712,-349.977"/>
<polygon fill="black" stroke="black" points="299.212,-349.977 302.712,-359.977 306.212,-349.978 299.212,-349.977"/>
</g>
<!-- HttpModule  -->
<g id="node29" class="node"><title>HttpModule </title>
<polygon fill="#fb8072" stroke="black" points="243.938,-396 156.062,-396 156.062,-360 243.938,-360 243.938,-396"/>
<text text-anchor="middle" x="200" y="-373.8" font-family="Times,serif" font-size="14.00">HttpModule </text>
</g>
<!-- SharedModule&#45;&gt;HttpModule  -->
<g id="edge30" class="edge"><title>SharedModule&#45;&gt;HttpModule </title>
<path fill="none" stroke="black" stroke-dasharray="5,2" d="M483.506,-315C390.743,-315 200,-315 200,-315 200,-315 200,-349.778 200,-349.778"/>
<polygon fill="black" stroke="black" points="196.5,-349.778 200,-359.778 203.5,-349.778 196.5,-349.778"/>
</g>
<!-- JsonpModule  -->
<g id="node30" class="node"><title>JsonpModule </title>
<polygon fill="#fb8072" stroke="black" points="853.439,-396 758.561,-396 758.561,-360 853.439,-360 853.439,-396"/>
<text text-anchor="middle" x="806" y="-373.8" font-family="Times,serif" font-size="14.00">JsonpModule </text>
</g>
<!-- SharedModule&#45;&gt;JsonpModule  -->
<g id="edge31" class="edge"><title>SharedModule&#45;&gt;JsonpModule </title>
<path fill="none" stroke="black" stroke-dasharray="5,2" d="M582.329,-318C650.607,-318 765.602,-318 765.602,-318 765.602,-318 765.602,-349.998 765.602,-349.998"/>
<polygon fill="black" stroke="black" points="762.102,-349.998 765.602,-359.998 769.102,-349.998 762.102,-349.998"/>
</g>
<!-- DocComponent  -->
<g id="node31" class="node"><title>DocComponent </title>
<polygon fill="#fb8072" stroke="black" points="740.154,-396 631.846,-396 631.846,-360 740.154,-360 740.154,-396"/>
<text text-anchor="middle" x="686" y="-373.8" font-family="Times,serif" font-size="14.00">DocComponent </text>
</g>
<!-- SharedModule&#45;&gt;DocComponent  -->
<g id="edge32" class="edge"><title>SharedModule&#45;&gt;DocComponent </title>
<path fill="none" stroke="black" stroke-dasharray="5,2" d="M582.252,-323C626.979,-323 686,-323 686,-323 686,-323 686,-349.991 686,-349.991"/>
<polygon fill="black" stroke="black" points="682.5,-349.991 686,-359.991 689.5,-349.991 682.5,-349.991"/>
</g>
<!-- FormsModule -->
<g id="node21" class="node"><title>FormsModule</title>
<polygon fill="#8dd3c7" stroke="black" points="119.829,-252 116.829,-256 95.8288,-256 92.8288,-252 24.1712,-252 24.1712,-216 119.829,-216 119.829,-252"/>
<text text-anchor="middle" x="72" y="-229.8" font-family="Times,serif" font-size="14.00">FormsModule</text>
</g>
<!-- FormsModule&#45;&gt;SharedModule -->
<g id="edge21" class="edge"><title>FormsModule&#45;&gt;SharedModule</title>
<path fill="none" stroke="black" d="M72,-252.011C72,-274.485 72,-310 72,-310 72,-310 473.665,-310 473.665,-310"/>
<polygon fill="black" stroke="black" points="473.665,-313.5 483.665,-310 473.665,-306.5 473.665,-313.5"/>
</g>
<!-- RouterModule -->
<g id="node22" class="node"><title>RouterModule</title>
<polygon fill="#8dd3c7" stroke="black" points="581.653,-252 578.653,-256 557.653,-256 554.653,-252 484.347,-252 484.347,-216 581.653,-216 581.653,-252"/>
<text text-anchor="middle" x="533" y="-229.8" font-family="Times,serif" font-size="14.00">RouterModule</text>
</g>
<!-- RouterModule&#45;&gt;SharedModule -->
<g id="edge22" class="edge"><title>RouterModule&#45;&gt;SharedModule</title>
<path fill="none" stroke="black" d="M516.725,-252.011C516.725,-252.011 516.725,-281.855 516.725,-281.855"/>
<polygon fill="black" stroke="black" points="513.225,-281.855 516.725,-291.855 520.225,-281.855 513.225,-281.855"/>
</g>
<!-- HttpModule -->
<g id="node23" class="node"><title>HttpModule</title>
<polygon fill="#8dd3c7" stroke="black" points="466.439,-252 463.439,-256 442.439,-256 439.439,-252 381.561,-252 381.561,-216 466.439,-216 466.439,-252"/>
<text text-anchor="middle" x="424" y="-229.8" font-family="Times,serif" font-size="14.00">HttpModule</text>
</g>
<!-- HttpModule&#45;&gt;SharedModule -->
<g id="edge23" class="edge"><title>HttpModule&#45;&gt;SharedModule</title>
<path fill="none" stroke="black" d="M424,-252.222C424,-270.829 424,-297 424,-297 424,-297 473.603,-297 473.603,-297"/>
<polygon fill="black" stroke="black" points="473.603,-300.5 483.603,-297 473.603,-293.5 473.603,-300.5"/>
</g>
<!-- JsonpModule -->
<g id="node24" class="node"><title>JsonpModule</title>
<polygon fill="#8dd3c7" stroke="black" points="363.94,-252 360.94,-256 339.94,-256 336.94,-252 272.06,-252 272.06,-216 363.94,-216 363.94,-252"/>
<text text-anchor="middle" x="318" y="-229.8" font-family="Times,serif" font-size="14.00">JsonpModule</text>
</g>
<!-- JsonpModule&#45;&gt;SharedModule -->
<g id="edge24" class="edge"><title>JsonpModule&#45;&gt;SharedModule</title>
<path fill="none" stroke="black" d="M333.144,-252.308C333.144,-272.146 333.144,-301 333.144,-301 333.144,-301 473.597,-301 473.597,-301"/>
<polygon fill="black" stroke="black" points="473.597,-304.5 483.597,-301 473.597,-297.5 473.597,-304.5"/>
</g>
<!-- RebirthUIModule -->
<g id="node25" class="node"><title>RebirthUIModule</title>
<polygon fill="#8dd3c7" stroke="black" points="254.31,-252 251.31,-256 230.31,-256 227.31,-252 137.69,-252 137.69,-216 254.31,-216 254.31,-252"/>
<text text-anchor="middle" x="196" y="-229.8" font-family="Times,serif" font-size="14.00">RebirthUIModule</text>
</g>
<!-- RebirthUIModule&#45;&gt;SharedModule -->
<g id="edge25" class="edge"><title>RebirthUIModule&#45;&gt;SharedModule</title>
<path fill="none" stroke="black" d="M249.062,-252.169C249.062,-273.498 249.062,-306 249.062,-306 249.062,-306 473.542,-306 473.542,-306"/>
<polygon fill="black" stroke="black" points="473.542,-309.5 483.542,-306 473.542,-302.5 473.542,-309.5"/>
</g>
</g>
</svg>
