<?xml version="1.0" encoding="UTF-8" standalone="no"?>
<!DOCTYPE svg PUBLIC "-//W3C//DTD SVG 1.1//EN"
 "http://www.w3.org/Graphics/SVG/1.1/DTD/svg11.dtd">
<!-- Generated by graphviz version 2.38.0 (20140413.2041)
 -->
<!-- Title: dependencies Pages: 1 -->
<svg width="2021pt" height="496pt"
 viewBox="0.00 0.00 2021.00 496.00" xmlns="http://www.w3.org/2000/svg" xmlns:xlink="http://www.w3.org/1999/xlink">
<g id="graph0" class="graph" transform="scale(1 1) rotate(0) translate(4 492)">
<title>dependencies</title>
<polygon fill="white" stroke="none" points="-4,4 -4,-492 2017,-492 2017,4 -4,4"/>
<text text-anchor="start" x="985.509" y="-42.4" font-family="sans-serif" font-weight="bold" font-size="14.00">Legend</text>
<polygon fill="#ffffb3" stroke="none" points="772.5,-10 772.5,-30 792.5,-30 792.5,-10 772.5,-10"/>
<text text-anchor="start" x="796.129" y="-15.4" font-family="sans-serif" font-size="14.00"> &#160;Declarations</text>
<polygon fill="#8dd3c7" stroke="none" points="885.5,-10 885.5,-30 905.5,-30 905.5,-10 885.5,-10"/>
<text text-anchor="start" x="909.225" y="-15.4" font-family="sans-serif" font-size="14.00"> &#160;Module</text>
<polygon fill="#80b1d3" stroke="none" points="971.5,-10 971.5,-30 991.5,-30 991.5,-10 971.5,-10"/>
<text text-anchor="start" x="995.281" y="-15.4" font-family="sans-serif" font-size="14.00"> &#160;Bootstrap</text>
<polygon fill="#fdb462" stroke="none" points="1068.5,-10 1068.5,-30 1088.5,-30 1088.5,-10 1068.5,-10"/>
<text text-anchor="start" x="1092.17" y="-15.4" font-family="sans-serif" font-size="14.00"> &#160;Providers</text>
<polygon fill="#fb8072" stroke="none" points="1164.5,-10 1164.5,-30 1184.5,-30 1184.5,-10 1164.5,-10"/>
<text text-anchor="start" x="1188.23" y="-15.4" font-family="sans-serif" font-size="14.00"> &#160;Exports</text>
<g id="clust1" class="cluster"><title>cluster_AppModule</title>
<polygon fill="none" stroke="black" stroke-dasharray="1,5" points="901,-276 901,-480 1871,-480 1871,-276 901,-276"/>
</g>
<g id="clust2" class="cluster"><title>cluster_AppModule_declarations</title>
<polygon fill="none" stroke="black" points="1741,-284 1741,-336 1863,-336 1863,-284 1741,-284"/>
</g>
<g id="clust4" class="cluster"><title>cluster_AppModule_imports</title>
<polygon fill="none" stroke="black" points="909,-284 909,-336 1733,-336 1733,-284 909,-284"/>
</g>
<g id="clust6" class="cluster"><title>cluster_AppModule_bootstrap</title>
<polygon fill="none" stroke="black" points="1387,-420 1387,-472 1511,-472 1511,-420 1387,-420"/>
</g>
<g id="clust8" class="cluster"><title>cluster_ChartDemoModule</title>
<polygon fill="none" stroke="black" stroke-dasharray="1,5" points="1277,-200 1277,-268 1915,-268 1915,-200 1277,-200"/>
</g>
<g id="clust9" class="cluster"><title>cluster_ChartDemoModule_declarations</title>
<polygon fill="none" stroke="black" points="1745,-208 1745,-260 1907,-260 1907,-208 1745,-208"/>
</g>
<g id="clust11" class="cluster"><title>cluster_ChartDemoModule_imports</title>
<polygon fill="none" stroke="black" points="1459,-208 1459,-260 1737,-260 1737,-208 1459,-208"/>
</g>
<g id="clust12" class="cluster"><title>cluster_ChartDemoModule_exports</title>
<polygon fill="none" stroke="black" points="1285,-208 1285,-260 1451,-260 1451,-208 1285,-208"/>
</g>
<g id="clust15" class="cluster"><title>cluster_ChartModule</title>
<polygon fill="none" stroke="black" stroke-dasharray="1,5" points="1121,-70 1121,-268 1269,-268 1269,-70 1121,-70"/>
</g>
<g id="clust16" class="cluster"><title>cluster_ChartModule_declarations</title>
<polygon fill="none" stroke="black" points="1133,-78 1133,-130 1261,-130 1261,-78 1133,-78"/>
</g>
<g id="clust19" class="cluster"><title>cluster_ChartModule_exports</title>
<polygon fill="none" stroke="black" points="1129,-208 1129,-260 1261,-260 1261,-208 1129,-208"/>
</g>
<g id="clust22" class="cluster"><title>cluster_RebirthChartModule</title>
<polygon fill="none" stroke="black" stroke-dasharray="1,5" points="1879,-276 1879,-344 2005,-344 2005,-276 1879,-276"/>
</g>
<g id="clust25" class="cluster"><title>cluster_RebirthChartModule_exports</title>
<polygon fill="none" stroke="black" points="1887,-284 1887,-336 1997,-336 1997,-284 1887,-284"/>
</g>
<g id="clust28" class="cluster"><title>cluster_SharedModule</title>
<polygon fill="none" stroke="black" stroke-dasharray="1,5" points="8,-200 8,-412 893,-412 893,-200 8,-200"/>
</g>
<g id="clust29" class="cluster"><title>cluster_SharedModule_declarations</title>
<polygon fill="none" stroke="black" points="598,-208 598,-260 885,-260 885,-208 598,-208"/>
</g>
<g id="clust32" class="cluster"><title>cluster_SharedModule_imports</title>
<polygon fill="none" stroke="black" points="16,-208 16,-260 590,-260 590,-208 16,-208"/>
</g>
<g id="clust33" class="cluster"><title>cluster_SharedModule_exports</title>
<polygon fill="none" stroke="black" points="148,-352 148,-404 861,-404 861,-352 148,-352"/>
</g>
<!-- AppComponent -->
<g id="node1" class="node"><title>AppComponent</title>
<polygon fill="#ffffb3" stroke="black" points="1854.94,-328 1749.06,-328 1749.06,-292 1854.94,-292 1854.94,-328"/>
<text text-anchor="middle" x="1802" y="-305.8" font-family="Times,serif" font-size="14.00">AppComponent</text>
</g>
<!-- AppModule -->
<g id="node2" class="node"><title>AppModule</title>
<polygon fill="#8dd3c7" stroke="black" points="1490.66,-396 1487.66,-400 1466.66,-400 1463.66,-396 1407.34,-396 1407.34,-360 1490.66,-360 1490.66,-396"/>
<text text-anchor="middle" x="1449" y="-373.8" font-family="Times,serif" font-size="14.00">AppModule</text>
</g>
<!-- AppComponent&#45;&gt;AppModule -->
<g id="edge1" class="edge"><title>AppComponent&#45;&gt;AppModule</title>
<path fill="none" stroke="black" d="M1802,-328.292C1802,-350.206 1802,-384 1802,-384 1802,-384 1500.88,-384 1500.88,-384"/>
<polygon fill="black" stroke="black" points="1500.88,-380.5 1490.88,-384 1500.88,-387.5 1500.88,-380.5"/>
</g>
<!-- AppComponent  -->
<g id="node8" class="node"><title>AppComponent </title>
<polygon fill="#80b1d3" stroke="black" points="1503.44,-464 1394.56,-464 1394.56,-428 1503.44,-428 1503.44,-464"/>
<text text-anchor="middle" x="1449" y="-441.8" font-family="Times,serif" font-size="14.00">AppComponent </text>
</g>
<!-- AppModule&#45;&gt;AppComponent  -->
<g id="edge7" class="edge"><title>AppModule&#45;&gt;AppComponent </title>
<path fill="none" stroke="black" stroke-dasharray="1,5" d="M1449,-396.223C1449,-396.223 1449,-417.727 1449,-417.727"/>
<polygon fill="black" stroke="black" points="1445.5,-417.727 1449,-427.727 1452.5,-417.727 1445.5,-417.727"/>
</g>
<!-- BrowserModule -->
<g id="node3" class="node"><title>BrowserModule</title>
<polygon fill="#8dd3c7" stroke="black" points="1582.47,-328 1579.47,-332 1558.47,-332 1555.47,-328 1475.53,-328 1475.53,-292 1582.47,-292 1582.47,-328"/>
<text text-anchor="middle" x="1529" y="-305.8" font-family="Times,serif" font-size="14.00">BrowserModule</text>
</g>
<!-- BrowserModule&#45;&gt;AppModule -->
<g id="edge2" class="edge"><title>BrowserModule&#45;&gt;AppModule</title>
<path fill="none" stroke="black" d="M1483.17,-328.223C1483.17,-328.223 1483.17,-349.727 1483.17,-349.727"/>
<polygon fill="black" stroke="black" points="1479.67,-349.727 1483.17,-359.727 1486.67,-349.727 1479.67,-349.727"/>
</g>
<!-- RouterModule.forRoot(args) -->
<g id="node4" class="node"><title>RouterModule.forRoot(args)</title>
<polygon fill="#8dd3c7" stroke="black" points="1457.84,-328 1454.84,-332 1433.84,-332 1430.84,-328 1280.16,-328 1280.16,-292 1457.84,-292 1457.84,-328"/>
<text text-anchor="middle" x="1369" y="-305.8" font-family="Times,serif" font-size="14.00">RouterModule.forRoot(args)</text>
</g>
<!-- RouterModule.forRoot(args)&#45;&gt;AppModule -->
<g id="edge3" class="edge"><title>RouterModule.forRoot(args)&#45;&gt;AppModule</title>
<path fill="none" stroke="black" d="M1432.42,-328.223C1432.42,-328.223 1432.42,-349.727 1432.42,-349.727"/>
<polygon fill="black" stroke="black" points="1428.92,-349.727 1432.42,-359.727 1435.92,-349.727 1428.92,-349.727"/>
</g>
<!-- SharedModule.forRoot() -->
<g id="node5" class="node"><title>SharedModule.forRoot()</title>
<polygon fill="#8dd3c7" stroke="black" points="1262.29,-328 1259.29,-332 1238.29,-332 1235.29,-328 1107.71,-328 1107.71,-292 1262.29,-292 1262.29,-328"/>
<text text-anchor="middle" x="1185" y="-305.8" font-family="Times,serif" font-size="14.00">SharedModule.forRoot()</text>
</g>
<!-- SharedModule.forRoot()&#45;&gt;AppModule -->
<g id="edge4" class="edge"><title>SharedModule.forRoot()&#45;&gt;AppModule</title>
<path fill="none" stroke="black" d="M1185,-328.267C1185,-346.555 1185,-372 1185,-372 1185,-372 1397.17,-372 1397.17,-372"/>
<polygon fill="black" stroke="black" points="1397.17,-375.5 1407.17,-372 1397.17,-368.5 1397.17,-375.5"/>
</g>
<!-- RebirthUIModule.forRoot() -->
<g id="node6" class="node"><title>RebirthUIModule.forRoot()</title>
<polygon fill="#8dd3c7" stroke="black" points="1089.18,-328 1086.18,-332 1065.18,-332 1062.18,-328 916.82,-328 916.82,-292 1089.18,-292 1089.18,-328"/>
<text text-anchor="middle" x="1003" y="-305.8" font-family="Times,serif" font-size="14.00">RebirthUIModule.forRoot()</text>
</g>
<!-- RebirthUIModule.forRoot()&#45;&gt;AppModule -->
<g id="edge5" class="edge"><title>RebirthUIModule.forRoot()&#45;&gt;AppModule</title>
<path fill="none" stroke="black" d="M1003,-328.292C1003,-350.206 1003,-384 1003,-384 1003,-384 1397.04,-384 1397.04,-384"/>
<polygon fill="black" stroke="black" points="1397.04,-387.5 1407.04,-384 1397.04,-380.5 1397.04,-387.5"/>
</g>
<!-- ChartDemoModule -->
<g id="node7" class="node"><title>ChartDemoModule</title>
<polygon fill="#8dd3c7" stroke="black" points="1725.36,-328 1722.36,-332 1701.36,-332 1698.36,-328 1600.64,-328 1600.64,-292 1725.36,-292 1725.36,-328"/>
<text text-anchor="middle" x="1663" y="-305.8" font-family="Times,serif" font-size="14.00">ChartDemoModule</text>
</g>
<!-- ChartDemoModule&#45;&gt;AppModule -->
<g id="edge6" class="edge"><title>ChartDemoModule&#45;&gt;AppModule</title>
<path fill="none" stroke="black" d="M1663,-328.267C1663,-346.555 1663,-372 1663,-372 1663,-372 1500.77,-372 1500.77,-372"/>
<polygon fill="black" stroke="black" points="1500.77,-368.5 1490.77,-372 1500.77,-375.5 1500.77,-368.5"/>
</g>
<!-- ChartDemoComponent  -->
<g id="node12" class="node"><title>ChartDemoComponent </title>
<polygon fill="#fb8072" stroke="black" points="1443.15,-252 1292.85,-252 1292.85,-216 1443.15,-216 1443.15,-252"/>
<text text-anchor="middle" x="1368" y="-229.8" font-family="Times,serif" font-size="14.00">ChartDemoComponent </text>
</g>
<!-- ChartDemoModule&#45;&gt;ChartDemoComponent  -->
<g id="edge11" class="edge"><title>ChartDemoModule&#45;&gt;ChartDemoComponent </title>
<path fill="none" stroke="black" stroke-dasharray="5,2" d="M1650.51,-291.806C1650.51,-283.722 1650.51,-276 1650.51,-276 1650.51,-276 1368,-276 1368,-276 1368,-276 1368,-262.056 1368,-262.056"/>
<polygon fill="black" stroke="black" points="1371.5,-262.055 1368,-252.056 1364.5,-262.056 1371.5,-262.055"/>
</g>
<!-- ChartDemoComponent -->
<g id="node9" class="node"><title>ChartDemoComponent</title>
<polygon fill="#ffffb3" stroke="black" points="1899.15,-252 1752.85,-252 1752.85,-216 1899.15,-216 1899.15,-252"/>
<text text-anchor="middle" x="1826" y="-229.8" font-family="Times,serif" font-size="14.00">ChartDemoComponent</text>
</g>
<!-- ChartDemoComponent&#45;&gt;ChartDemoModule -->
<g id="edge8" class="edge"><title>ChartDemoComponent&#45;&gt;ChartDemoModule</title>
<path fill="none" stroke="black" d="M1752.85,-234C1744.72,-234 1739.3,-234 1739.3,-234 1739.3,-234 1739.3,-310 1739.3,-310 1739.3,-310 1735.66,-310 1735.66,-310"/>
<polygon fill="black" stroke="black" points="1735.66,-306.5 1725.66,-310 1735.66,-313.5 1735.66,-306.5"/>
</g>
<!-- CommonModule -->
<g id="node10" class="node"><title>CommonModule</title>
<polygon fill="#8dd3c7" stroke="black" points="1578.67,-252 1575.67,-256 1554.67,-256 1551.67,-252 1467.33,-252 1467.33,-216 1578.67,-216 1578.67,-252"/>
<text text-anchor="middle" x="1523" y="-229.8" font-family="Times,serif" font-size="14.00">CommonModule</text>
</g>
<!-- CommonModule&#45;&gt;ChartDemoModule -->
<g id="edge9" class="edge"><title>CommonModule&#45;&gt;ChartDemoModule</title>
<path fill="none" stroke="black" d="M1578.88,-234C1585.29,-234 1589.58,-234 1589.58,-234 1589.58,-234 1589.58,-310 1589.58,-310 1589.58,-310 1590.67,-310 1590.67,-310"/>
<polygon fill="black" stroke="black" points="1590.42,-313.5 1600.42,-310 1590.42,-306.5 1590.42,-313.5"/>
</g>
<!-- ChartModule -->
<g id="node14" class="node"><title>ChartModule</title>
<polygon fill="#8dd3c7" stroke="black" points="1251.15,-187 1248.15,-191 1227.15,-191 1224.15,-187 1160.85,-187 1160.85,-151 1251.15,-151 1251.15,-187"/>
<text text-anchor="middle" x="1206" y="-164.8" font-family="Times,serif" font-size="14.00">ChartModule</text>
</g>
<!-- CommonModule&#45;&gt;ChartModule -->
<g id="edge13" class="edge"><title>CommonModule&#45;&gt;ChartModule</title>
<path fill="none" stroke="black" d="M1523,-215.977C1523,-198.627 1523,-175 1523,-175 1523,-175 1261.42,-175 1261.42,-175"/>
<polygon fill="black" stroke="black" points="1261.42,-171.5 1251.42,-175 1261.42,-178.5 1261.42,-171.5"/>
</g>
<!-- SharedModule -->
<g id="node19" class="node"><title>SharedModule</title>
<polygon fill="#8dd3c7" stroke="black" points="582.423,-328 579.423,-332 558.423,-332 555.423,-328 483.577,-328 483.577,-292 582.423,-292 582.423,-328"/>
<text text-anchor="middle" x="533" y="-305.8" font-family="Times,serif" font-size="14.00">SharedModule</text>
</g>
<!-- CommonModule&#45;&gt;SharedModule -->
<g id="edge19" class="edge"><title>CommonModule&#45;&gt;SharedModule</title>
<path fill="none" stroke="black" d="M1471.34,-252.058C1471.34,-256.495 1471.34,-260 1471.34,-260 1471.34,-260 533,-260 533,-260 533,-260 533,-281.949 533,-281.949"/>
<polygon fill="black" stroke="black" points="529.5,-281.949 533,-291.949 536.5,-281.949 529.5,-281.949"/>
</g>
<!-- RebirthChartModule -->
<g id="node11" class="node"><title>RebirthChartModule</title>
<polygon fill="#8dd3c7" stroke="black" points="1729.15,-252 1726.15,-256 1705.15,-256 1702.15,-252 1596.85,-252 1596.85,-216 1729.15,-216 1729.15,-252"/>
<text text-anchor="middle" x="1663" y="-229.8" font-family="Times,serif" font-size="14.00">RebirthChartModule</text>
</g>
<!-- RebirthChartModule&#45;&gt;ChartDemoModule -->
<g id="edge10" class="edge"><title>RebirthChartModule&#45;&gt;ChartDemoModule</title>
<path fill="none" stroke="black" d="M1675.49,-252.011C1675.49,-252.011 1675.49,-281.855 1675.49,-281.855"/>
<polygon fill="black" stroke="black" points="1671.99,-281.855 1675.49,-291.855 1678.99,-281.855 1671.99,-281.855"/>
</g>
<!-- ChartModule  -->
<g id="node16" class="node"><title>ChartModule </title>
<polygon fill="#fb8072" stroke="black" points="1989.15,-328 1894.85,-328 1894.85,-292 1989.15,-292 1989.15,-328"/>
<text text-anchor="middle" x="1942" y="-305.8" font-family="Times,serif" font-size="14.00">ChartModule </text>
</g>
<!-- RebirthChartModule&#45;&gt;ChartModule  -->
<g id="edge16" class="edge"><title>RebirthChartModule&#45;&gt;ChartModule </title>
<path fill="none" stroke="black" stroke-dasharray="5,2" d="M1700.46,-252.194C1700.46,-260.278 1700.46,-268 1700.46,-268 1700.46,-268 1944.2,-268 1944.2,-268 1944.2,-268 1944.2,-281.944 1944.2,-281.944"/>
<polygon fill="black" stroke="black" points="1940.7,-281.944 1944.2,-291.944 1947.7,-281.945 1940.7,-281.944"/>
</g>
<!-- RebirthChartModule&#45;&gt;SharedModule -->
<g id="edge25" class="edge"><title>RebirthChartModule&#45;&gt;SharedModule</title>
<path fill="none" stroke="black" d="M1625.54,-252.051C1625.54,-266.373 1625.54,-284 1625.54,-284 1625.54,-284 557.413,-284 557.413,-284 557.413,-284 557.413,-284.794 557.413,-284.794"/>
<polygon fill="black" stroke="black" points="553.913,-281.942 557.413,-291.942 560.913,-281.942 553.913,-281.942"/>
</g>
<!-- ChartComponent -->
<g id="node13" class="node"><title>ChartComponent</title>
<polygon fill="#ffffb3" stroke="black" points="1253.44,-122 1140.56,-122 1140.56,-86 1253.44,-86 1253.44,-122"/>
<text text-anchor="middle" x="1197" y="-99.8" font-family="Times,serif" font-size="14.00">ChartComponent</text>
</g>
<!-- ChartComponent&#45;&gt;ChartModule -->
<g id="edge12" class="edge"><title>ChartComponent&#45;&gt;ChartModule</title>
<path fill="none" stroke="black" d="M1206,-122.106C1206,-122.106 1206,-140.991 1206,-140.991"/>
<polygon fill="black" stroke="black" points="1202.5,-140.991 1206,-150.991 1209.5,-140.991 1202.5,-140.991"/>
</g>
<!-- ChartModule&#45;&gt;RebirthChartModule -->
<g id="edge15" class="edge"><title>ChartModule&#45;&gt;RebirthChartModule</title>
<path fill="none" stroke="black" d="M1251.49,-163C1367.08,-163 1663,-163 1663,-163 1663,-163 1663,-205.716 1663,-205.716"/>
<polygon fill="black" stroke="black" points="1659.5,-205.716 1663,-215.716 1666.5,-205.716 1659.5,-205.716"/>
</g>
<!-- ChartComponent  -->
<g id="node15" class="node"><title>ChartComponent </title>
<polygon fill="#fb8072" stroke="black" points="1252.93,-252 1137.07,-252 1137.07,-216 1252.93,-216 1252.93,-252"/>
<text text-anchor="middle" x="1195" y="-229.8" font-family="Times,serif" font-size="14.00">ChartComponent </text>
</g>
<!-- ChartModule&#45;&gt;ChartComponent  -->
<g id="edge14" class="edge"><title>ChartModule&#45;&gt;ChartComponent </title>
<path fill="none" stroke="black" stroke-dasharray="5,2" d="M1206,-187.106C1206,-187.106 1206,-205.991 1206,-205.991"/>
<polygon fill="black" stroke="black" points="1202.5,-205.991 1206,-215.991 1209.5,-205.991 1202.5,-205.991"/>
</g>
<!-- DocComponent -->
<g id="node17" class="node"><title>DocComponent</title>
<polygon fill="#ffffb3" stroke="black" points="877.154,-252 772.846,-252 772.846,-216 877.154,-216 877.154,-252"/>
<text text-anchor="middle" x="825" y="-229.8" font-family="Times,serif" font-size="14.00">DocComponent</text>
</g>
<!-- DocComponent&#45;&gt;SharedModule -->
<g id="edge17" class="edge"><title>DocComponent&#45;&gt;SharedModule</title>
<path fill="none" stroke="black" d="M813.071,-252.045C813.071,-273.662 813.071,-307 813.071,-307 813.071,-307 592.426,-307 592.426,-307"/>
<polygon fill="black" stroke="black" points="592.426,-303.5 582.426,-307 592.426,-310.5 592.426,-303.5"/>
</g>
<!-- DocContentComponent -->
<g id="node18" class="node"><title>DocContentComponent</title>
<polygon fill="#ffffb3" stroke="black" points="754.486,-252 605.514,-252 605.514,-216 754.486,-216 754.486,-252"/>
<text text-anchor="middle" x="680" y="-229.8" font-family="Times,serif" font-size="14.00">DocContentComponent</text>
</g>
<!-- DocContentComponent&#45;&gt;SharedModule -->
<g id="edge18" class="edge"><title>DocContentComponent&#45;&gt;SharedModule</title>
<path fill="none" stroke="black" d="M609.545,-252.035C609.545,-271.576 609.545,-300 609.545,-300 609.545,-300 592.343,-300 592.343,-300"/>
<polygon fill="black" stroke="black" points="592.343,-296.5 582.343,-300 592.343,-303.5 592.343,-296.5"/>
</g>
<!-- CommonModule  -->
<g id="node25" class="node"><title>CommonModule </title>
<polygon fill="#fb8072" stroke="black" points="613.668,-396 498.332,-396 498.332,-360 613.668,-360 613.668,-396"/>
<text text-anchor="middle" x="556" y="-373.8" font-family="Times,serif" font-size="14.00">CommonModule </text>
</g>
<!-- SharedModule&#45;&gt;CommonModule  -->
<g id="edge26" class="edge"><title>SharedModule&#45;&gt;CommonModule </title>
<path fill="none" stroke="black" stroke-dasharray="5,2" d="M540.314,-328.223C540.314,-328.223 540.314,-349.727 540.314,-349.727"/>
<polygon fill="black" stroke="black" points="536.814,-349.727 540.314,-359.727 543.814,-349.727 536.814,-349.727"/>
</g>
<!-- FormsModule  -->
<g id="node26" class="node"><title>FormsModule </title>
<polygon fill="#fb8072" stroke="black" points="480.328,-396 381.672,-396 381.672,-360 480.328,-360 480.328,-396"/>
<text text-anchor="middle" x="431" y="-373.8" font-family="Times,serif" font-size="14.00">FormsModule </text>
</g>
<!-- SharedModule&#45;&gt;FormsModule  -->
<g id="edge27" class="edge"><title>SharedModule&#45;&gt;FormsModule </title>
<path fill="none" stroke="black" stroke-dasharray="5,2" d="M483.713,-324C477.528,-324 473.316,-324 473.316,-324 473.316,-324 473.316,-349.718 473.316,-349.718"/>
<polygon fill="black" stroke="black" points="469.817,-349.718 473.316,-359.718 476.817,-349.718 469.817,-349.718"/>
</g>
<!-- RouterModule  -->
<g id="node27" class="node"><title>RouterModule </title>
<polygon fill="#fb8072" stroke="black" points="363.652,-396 262.348,-396 262.348,-360 363.652,-360 363.652,-396"/>
<text text-anchor="middle" x="313" y="-373.8" font-family="Times,serif" font-size="14.00">RouterModule </text>
</g>
<!-- SharedModule&#45;&gt;RouterModule  -->
<g id="edge28" class="edge"><title>SharedModule&#45;&gt;RouterModule </title>
<path fill="none" stroke="black" stroke-dasharray="5,2" d="M483.598,-319C415.931,-319 302.712,-319 302.712,-319 302.712,-319 302.712,-349.977 302.712,-349.977"/>
<polygon fill="black" stroke="black" points="299.212,-349.977 302.712,-359.977 306.212,-349.978 299.212,-349.977"/>
</g>
<!-- HttpModule  -->
<g id="node28" class="node"><title>HttpModule </title>
<polygon fill="#fb8072" stroke="black" points="243.938,-396 156.062,-396 156.062,-360 243.938,-360 243.938,-396"/>
<text text-anchor="middle" x="200" y="-373.8" font-family="Times,serif" font-size="14.00">HttpModule </text>
</g>
<!-- SharedModule&#45;&gt;HttpModule  -->
<g id="edge29" class="edge"><title>SharedModule&#45;&gt;HttpModule </title>
<path fill="none" stroke="black" stroke-dasharray="5,2" d="M483.506,-315C390.743,-315 200,-315 200,-315 200,-315 200,-349.778 200,-349.778"/>
<polygon fill="black" stroke="black" points="196.5,-349.778 200,-359.778 203.5,-349.778 196.5,-349.778"/>
</g>
<!-- JsonpModule  -->
<g id="node29" class="node"><title>JsonpModule </title>
<polygon fill="#fb8072" stroke="black" points="853.439,-396 758.561,-396 758.561,-360 853.439,-360 853.439,-396"/>
<text text-anchor="middle" x="806" y="-373.8" font-family="Times,serif" font-size="14.00">JsonpModule </text>
</g>
<!-- SharedModule&#45;&gt;JsonpModule  -->
<g id="edge30" class="edge"><title>SharedModule&#45;&gt;JsonpModule </title>
<path fill="none" stroke="black" stroke-dasharray="5,2" d="M582.329,-314C650.607,-314 765.602,-314 765.602,-314 765.602,-314 765.602,-349.831 765.602,-349.831"/>
<polygon fill="black" stroke="black" points="762.102,-349.831 765.602,-359.831 769.102,-349.831 762.102,-349.831"/>
</g>
<!-- DocComponent  -->
<g id="node30" class="node"><title>DocComponent </title>
<polygon fill="#fb8072" stroke="black" points="740.154,-396 631.846,-396 631.846,-360 740.154,-360 740.154,-396"/>
<text text-anchor="middle" x="686" y="-373.8" font-family="Times,serif" font-size="14.00">DocComponent </text>
</g>
<!-- SharedModule&#45;&gt;DocComponent  -->
<g id="edge31" class="edge"><title>SharedModule&#45;&gt;DocComponent </title>
<path fill="none" stroke="black" stroke-dasharray="5,2" d="M582.252,-321C626.979,-321 686,-321 686,-321 686,-321 686,-349.965 686,-349.965"/>
<polygon fill="black" stroke="black" points="682.5,-349.965 686,-359.965 689.5,-349.965 682.5,-349.965"/>
</g>
<!-- FormsModule -->
<g id="node20" class="node"><title>FormsModule</title>
<polygon fill="#8dd3c7" stroke="black" points="119.829,-252 116.829,-256 95.8288,-256 92.8288,-252 24.1712,-252 24.1712,-216 119.829,-216 119.829,-252"/>
<text text-anchor="middle" x="72" y="-229.8" font-family="Times,serif" font-size="14.00">FormsModule</text>
</g>
<!-- FormsModule&#45;&gt;SharedModule -->
<g id="edge20" class="edge"><title>FormsModule&#45;&gt;SharedModule</title>
<path fill="none" stroke="black" d="M72,-252.011C72,-274.485 72,-310 72,-310 72,-310 473.665,-310 473.665,-310"/>
<polygon fill="black" stroke="black" points="473.665,-313.5 483.665,-310 473.665,-306.5 473.665,-313.5"/>
</g>
<!-- RouterModule -->
<g id="node21" class="node"><title>RouterModule</title>
<polygon fill="#8dd3c7" stroke="black" points="581.653,-252 578.653,-256 557.653,-256 554.653,-252 484.347,-252 484.347,-216 581.653,-216 581.653,-252"/>
<text text-anchor="middle" x="533" y="-229.8" font-family="Times,serif" font-size="14.00">RouterModule</text>
</g>
<!-- RouterModule&#45;&gt;SharedModule -->
<g id="edge21" class="edge"><title>RouterModule&#45;&gt;SharedModule</title>
<path fill="none" stroke="black" d="M508.587,-252.011C508.587,-252.011 508.587,-281.855 508.587,-281.855"/>
<polygon fill="black" stroke="black" points="505.087,-281.855 508.587,-291.855 512.087,-281.855 505.087,-281.855"/>
</g>
<!-- HttpModule -->
<g id="node22" class="node"><title>HttpModule</title>
<polygon fill="#8dd3c7" stroke="black" points="466.439,-252 463.439,-256 442.439,-256 439.439,-252 381.561,-252 381.561,-216 466.439,-216 466.439,-252"/>
<text text-anchor="middle" x="424" y="-229.8" font-family="Times,serif" font-size="14.00">HttpModule</text>
</g>
<!-- HttpModule&#45;&gt;SharedModule -->
<g id="edge22" class="edge"><title>HttpModule&#45;&gt;SharedModule</title>
<path fill="none" stroke="black" d="M424,-252.222C424,-270.829 424,-297 424,-297 424,-297 473.603,-297 473.603,-297"/>
<polygon fill="black" stroke="black" points="473.603,-300.5 483.603,-297 473.603,-293.5 473.603,-300.5"/>
</g>
<!-- JsonpModule -->
<g id="node23" class="node"><title>JsonpModule</title>
<polygon fill="#8dd3c7" stroke="black" points="363.94,-252 360.94,-256 339.94,-256 336.94,-252 272.06,-252 272.06,-216 363.94,-216 363.94,-252"/>
<text text-anchor="middle" x="318" y="-229.8" font-family="Times,serif" font-size="14.00">JsonpModule</text>
</g>
<!-- JsonpModule&#45;&gt;SharedModule -->
<g id="edge23" class="edge"><title>JsonpModule&#45;&gt;SharedModule</title>
<path fill="none" stroke="black" d="M333.144,-252.308C333.144,-272.146 333.144,-301 333.144,-301 333.144,-301 473.597,-301 473.597,-301"/>
<polygon fill="black" stroke="black" points="473.597,-304.5 483.597,-301 473.597,-297.5 473.597,-304.5"/>
</g>
<!-- RebirthUIModule -->
<g id="node24" class="node"><title>RebirthUIModule</title>
<polygon fill="#8dd3c7" stroke="black" points="254.31,-252 251.31,-256 230.31,-256 227.31,-252 137.69,-252 137.69,-216 254.31,-216 254.31,-252"/>
<text text-anchor="middle" x="196" y="-229.8" font-family="Times,serif" font-size="14.00">RebirthUIModule</text>
</g>
<!-- RebirthUIModule&#45;&gt;SharedModule -->
<g id="edge24" class="edge"><title>RebirthUIModule&#45;&gt;SharedModule</title>
<path fill="none" stroke="black" d="M249.062,-252.169C249.062,-273.498 249.062,-306 249.062,-306 249.062,-306 473.542,-306 473.542,-306"/>
<polygon fill="black" stroke="black" points="473.542,-309.5 483.542,-306 473.542,-302.5 473.542,-309.5"/>
</g>
</g>
</svg>
