<?xml version="1.0" encoding="UTF-8" standalone="no"?>
<!DOCTYPE svg PUBLIC "-//W3C//DTD SVG 1.1//EN"
 "http://www.w3.org/Graphics/SVG/1.1/DTD/svg11.dtd">
<!-- Generated by graphviz version 2.38.0 (20140413.2041)
 -->
<!-- Title: dependencies Pages: 1 -->
<svg width="1820pt" height="496pt"
 viewBox="0.00 0.00 1820.00 496.00" xmlns="http://www.w3.org/2000/svg" xmlns:xlink="http://www.w3.org/1999/xlink">
<g id="graph0" class="graph" transform="scale(1 1) rotate(0) translate(4 492)">
<title>dependencies</title>
<polygon fill="white" stroke="none" points="-4,4 -4,-492 1816,-492 1816,4 -4,4"/>
<text text-anchor="start" x="885.009" y="-42.4" font-family="sans-serif" font-weight="bold" font-size="14.00">Legend</text>
<polygon fill="#ffffb3" stroke="none" points="672,-10 672,-30 692,-30 692,-10 672,-10"/>
<text text-anchor="start" x="695.629" y="-15.4" font-family="sans-serif" font-size="14.00"> &#160;Declarations</text>
<polygon fill="#8dd3c7" stroke="none" points="785,-10 785,-30 805,-30 805,-10 785,-10"/>
<text text-anchor="start" x="808.725" y="-15.4" font-family="sans-serif" font-size="14.00"> &#160;Module</text>
<polygon fill="#80b1d3" stroke="none" points="871,-10 871,-30 891,-30 891,-10 871,-10"/>
<text text-anchor="start" x="894.781" y="-15.4" font-family="sans-serif" font-size="14.00"> &#160;Bootstrap</text>
<polygon fill="#fdb462" stroke="none" points="968,-10 968,-30 988,-30 988,-10 968,-10"/>
<text text-anchor="start" x="991.673" y="-15.4" font-family="sans-serif" font-size="14.00"> &#160;Providers</text>
<polygon fill="#fb8072" stroke="none" points="1064,-10 1064,-30 1084,-30 1084,-10 1064,-10"/>
<text text-anchor="start" x="1087.73" y="-15.4" font-family="sans-serif" font-size="14.00"> &#160;Exports</text>
<g id="clust1" class="cluster"><title>cluster_AppModule</title>
<polygon fill="none" stroke="black" stroke-dasharray="1,5" points="695,-276 695,-480 1670,-480 1670,-276 695,-276"/>
</g>
<g id="clust2" class="cluster"><title>cluster_AppModule_declarations</title>
<polygon fill="none" stroke="black" points="1540,-284 1540,-336 1662,-336 1662,-284 1540,-284"/>
</g>
<g id="clust4" class="cluster"><title>cluster_AppModule_imports</title>
<polygon fill="none" stroke="black" points="703,-284 703,-336 1532,-336 1532,-284 703,-284"/>
</g>
<g id="clust6" class="cluster"><title>cluster_AppModule_bootstrap</title>
<polygon fill="none" stroke="black" points="1186,-420 1186,-472 1310,-472 1310,-420 1186,-420"/>
</g>
<g id="clust8" class="cluster"><title>cluster_ChartDemoModule</title>
<polygon fill="none" stroke="black" stroke-dasharray="1,5" points="1076,-200 1076,-268 1714,-268 1714,-200 1076,-200"/>
</g>
<g id="clust9" class="cluster"><title>cluster_ChartDemoModule_declarations</title>
<polygon fill="none" stroke="black" points="1544,-208 1544,-260 1706,-260 1706,-208 1544,-208"/>
</g>
<g id="clust11" class="cluster"><title>cluster_ChartDemoModule_imports</title>
<polygon fill="none" stroke="black" points="1258,-208 1258,-260 1536,-260 1536,-208 1258,-208"/>
</g>
<g id="clust12" class="cluster"><title>cluster_ChartDemoModule_exports</title>
<polygon fill="none" stroke="black" points="1084,-208 1084,-260 1250,-260 1250,-208 1084,-208"/>
</g>
<g id="clust15" class="cluster"><title>cluster_ChartModule</title>
<polygon fill="none" stroke="black" stroke-dasharray="1,5" points="920,-70 920,-268 1068,-268 1068,-70 920,-70"/>
</g>
<g id="clust16" class="cluster"><title>cluster_ChartModule_declarations</title>
<polygon fill="none" stroke="black" points="932,-78 932,-130 1060,-130 1060,-78 932,-78"/>
</g>
<g id="clust19" class="cluster"><title>cluster_ChartModule_exports</title>
<polygon fill="none" stroke="black" points="928,-208 928,-260 1060,-260 1060,-208 928,-208"/>
</g>
<g id="clust22" class="cluster"><title>cluster_RebirthChartModule</title>
<polygon fill="none" stroke="black" stroke-dasharray="1,5" points="1678,-276 1678,-344 1804,-344 1804,-276 1678,-276"/>
</g>
<g id="clust25" class="cluster"><title>cluster_RebirthChartModule_exports</title>
<polygon fill="none" stroke="black" points="1686,-284 1686,-336 1796,-336 1796,-284 1686,-284"/>
</g>
<g id="clust28" class="cluster"><title>cluster_SharedModule</title>
<polygon fill="none" stroke="black" stroke-dasharray="1,5" points="8,-200 8,-412 687,-412 687,-200 8,-200"/>
</g>
<g id="clust29" class="cluster"><title>cluster_SharedModule_declarations</title>
<polygon fill="none" stroke="black" points="392,-208 392,-260 679,-260 679,-208 392,-208"/>
</g>
<g id="clust32" class="cluster"><title>cluster_SharedModule_imports</title>
<polygon fill="none" stroke="black" points="16,-208 16,-260 384,-260 384,-208 16,-208"/>
</g>
<g id="clust33" class="cluster"><title>cluster_SharedModule_exports</title>
<polygon fill="none" stroke="black" points="173,-352 173,-404 667,-404 667,-352 173,-352"/>
</g>
<!-- AppComponent -->
<g id="node1" class="node"><title>AppComponent</title>
<polygon fill="#ffffb3" stroke="black" points="1653.94,-328 1548.06,-328 1548.06,-292 1653.94,-292 1653.94,-328"/>
<text text-anchor="middle" x="1601" y="-305.8" font-family="Times,serif" font-size="14.00">AppComponent</text>
</g>
<!-- AppModule -->
<g id="node2" class="node"><title>AppModule</title>
<polygon fill="#8dd3c7" stroke="black" points="1289.66,-396 1286.66,-400 1265.66,-400 1262.66,-396 1206.34,-396 1206.34,-360 1289.66,-360 1289.66,-396"/>
<text text-anchor="middle" x="1248" y="-373.8" font-family="Times,serif" font-size="14.00">AppModule</text>
</g>
<!-- AppComponent&#45;&gt;AppModule -->
<g id="edge1" class="edge"><title>AppComponent&#45;&gt;AppModule</title>
<path fill="none" stroke="black" d="M1601,-328.292C1601,-350.206 1601,-384 1601,-384 1601,-384 1299.88,-384 1299.88,-384"/>
<polygon fill="black" stroke="black" points="1299.88,-380.5 1289.88,-384 1299.88,-387.5 1299.88,-380.5"/>
</g>
<!-- AppComponent  -->
<g id="node8" class="node"><title>AppComponent </title>
<polygon fill="#80b1d3" stroke="black" points="1302.44,-464 1193.56,-464 1193.56,-428 1302.44,-428 1302.44,-464"/>
<text text-anchor="middle" x="1248" y="-441.8" font-family="Times,serif" font-size="14.00">AppComponent </text>
</g>
<!-- AppModule&#45;&gt;AppComponent  -->
<g id="edge7" class="edge"><title>AppModule&#45;&gt;AppComponent </title>
<path fill="none" stroke="black" stroke-dasharray="1,5" d="M1248,-396.223C1248,-396.223 1248,-417.727 1248,-417.727"/>
<polygon fill="black" stroke="black" points="1244.5,-417.727 1248,-427.727 1251.5,-417.727 1244.5,-417.727"/>
</g>
<!-- BrowserModule -->
<g id="node3" class="node"><title>BrowserModule</title>
<polygon fill="#8dd3c7" stroke="black" points="1381.47,-328 1378.47,-332 1357.47,-332 1354.47,-328 1274.53,-328 1274.53,-292 1381.47,-292 1381.47,-328"/>
<text text-anchor="middle" x="1328" y="-305.8" font-family="Times,serif" font-size="14.00">BrowserModule</text>
</g>
<!-- BrowserModule&#45;&gt;AppModule -->
<g id="edge2" class="edge"><title>BrowserModule&#45;&gt;AppModule</title>
<path fill="none" stroke="black" d="M1282.17,-328.223C1282.17,-328.223 1282.17,-349.727 1282.17,-349.727"/>
<polygon fill="black" stroke="black" points="1278.67,-349.727 1282.17,-359.727 1285.67,-349.727 1278.67,-349.727"/>
</g>
<!-- RouterModule.forRoot(args) -->
<g id="node4" class="node"><title>RouterModule.forRoot(args)</title>
<polygon fill="#8dd3c7" stroke="black" points="1256.84,-328 1253.84,-332 1232.84,-332 1229.84,-328 1079.16,-328 1079.16,-292 1256.84,-292 1256.84,-328"/>
<text text-anchor="middle" x="1168" y="-305.8" font-family="Times,serif" font-size="14.00">RouterModule.forRoot(args)</text>
</g>
<!-- RouterModule.forRoot(args)&#45;&gt;AppModule -->
<g id="edge3" class="edge"><title>RouterModule.forRoot(args)&#45;&gt;AppModule</title>
<path fill="none" stroke="black" d="M1231.42,-328.223C1231.42,-328.223 1231.42,-349.727 1231.42,-349.727"/>
<polygon fill="black" stroke="black" points="1227.92,-349.727 1231.42,-359.727 1234.92,-349.727 1227.92,-349.727"/>
</g>
<!-- SharedModule.forRoot() -->
<g id="node5" class="node"><title>SharedModule.forRoot()</title>
<polygon fill="#8dd3c7" stroke="black" points="1061.29,-328 1058.29,-332 1037.29,-332 1034.29,-328 906.708,-328 906.708,-292 1061.29,-292 1061.29,-328"/>
<text text-anchor="middle" x="984" y="-305.8" font-family="Times,serif" font-size="14.00">SharedModule.forRoot()</text>
</g>
<!-- SharedModule.forRoot()&#45;&gt;AppModule -->
<g id="edge4" class="edge"><title>SharedModule.forRoot()&#45;&gt;AppModule</title>
<path fill="none" stroke="black" d="M984,-328.267C984,-346.555 984,-372 984,-372 984,-372 1196.17,-372 1196.17,-372"/>
<polygon fill="black" stroke="black" points="1196.17,-375.5 1206.17,-372 1196.17,-368.5 1196.17,-375.5"/>
</g>
<!-- RebirthNGModule.forRoot() -->
<g id="node6" class="node"><title>RebirthNGModule.forRoot()</title>
<polygon fill="#8dd3c7" stroke="black" points="889.126,-328 886.126,-332 865.126,-332 862.126,-328 710.874,-328 710.874,-292 889.126,-292 889.126,-328"/>
<text text-anchor="middle" x="800" y="-305.8" font-family="Times,serif" font-size="14.00">RebirthNGModule.forRoot()</text>
</g>
<!-- RebirthNGModule.forRoot()&#45;&gt;AppModule -->
<g id="edge5" class="edge"><title>RebirthNGModule.forRoot()&#45;&gt;AppModule</title>
<path fill="none" stroke="black" d="M800,-328.292C800,-350.206 800,-384 800,-384 800,-384 1196.26,-384 1196.26,-384"/>
<polygon fill="black" stroke="black" points="1196.26,-387.5 1206.26,-384 1196.26,-380.5 1196.26,-387.5"/>
</g>
<!-- ChartDemoModule -->
<g id="node7" class="node"><title>ChartDemoModule</title>
<polygon fill="#8dd3c7" stroke="black" points="1524.36,-328 1521.36,-332 1500.36,-332 1497.36,-328 1399.64,-328 1399.64,-292 1524.36,-292 1524.36,-328"/>
<text text-anchor="middle" x="1462" y="-305.8" font-family="Times,serif" font-size="14.00">ChartDemoModule</text>
</g>
<!-- ChartDemoModule&#45;&gt;AppModule -->
<g id="edge6" class="edge"><title>ChartDemoModule&#45;&gt;AppModule</title>
<path fill="none" stroke="black" d="M1462,-328.267C1462,-346.555 1462,-372 1462,-372 1462,-372 1299.77,-372 1299.77,-372"/>
<polygon fill="black" stroke="black" points="1299.77,-368.5 1289.77,-372 1299.77,-375.5 1299.77,-368.5"/>
</g>
<!-- ChartDemoComponent  -->
<g id="node12" class="node"><title>ChartDemoComponent </title>
<polygon fill="#fb8072" stroke="black" points="1242.15,-252 1091.85,-252 1091.85,-216 1242.15,-216 1242.15,-252"/>
<text text-anchor="middle" x="1167" y="-229.8" font-family="Times,serif" font-size="14.00">ChartDemoComponent </text>
</g>
<!-- ChartDemoModule&#45;&gt;ChartDemoComponent  -->
<g id="edge11" class="edge"><title>ChartDemoModule&#45;&gt;ChartDemoComponent </title>
<path fill="none" stroke="black" stroke-dasharray="5,2" d="M1449.51,-291.806C1449.51,-283.722 1449.51,-276 1449.51,-276 1449.51,-276 1167,-276 1167,-276 1167,-276 1167,-262.056 1167,-262.056"/>
<polygon fill="black" stroke="black" points="1170.5,-262.055 1167,-252.056 1163.5,-262.056 1170.5,-262.055"/>
</g>
<!-- ChartDemoComponent -->
<g id="node9" class="node"><title>ChartDemoComponent</title>
<polygon fill="#ffffb3" stroke="black" points="1698.15,-252 1551.85,-252 1551.85,-216 1698.15,-216 1698.15,-252"/>
<text text-anchor="middle" x="1625" y="-229.8" font-family="Times,serif" font-size="14.00">ChartDemoComponent</text>
</g>
<!-- ChartDemoComponent&#45;&gt;ChartDemoModule -->
<g id="edge8" class="edge"><title>ChartDemoComponent&#45;&gt;ChartDemoModule</title>
<path fill="none" stroke="black" d="M1551.85,-234C1543.72,-234 1538.3,-234 1538.3,-234 1538.3,-234 1538.3,-310 1538.3,-310 1538.3,-310 1534.66,-310 1534.66,-310"/>
<polygon fill="black" stroke="black" points="1534.66,-306.5 1524.66,-310 1534.66,-313.5 1534.66,-306.5"/>
</g>
<!-- CommonModule -->
<g id="node10" class="node"><title>CommonModule</title>
<polygon fill="#8dd3c7" stroke="black" points="1377.67,-252 1374.67,-256 1353.67,-256 1350.67,-252 1266.33,-252 1266.33,-216 1377.67,-216 1377.67,-252"/>
<text text-anchor="middle" x="1322" y="-229.8" font-family="Times,serif" font-size="14.00">CommonModule</text>
</g>
<!-- CommonModule&#45;&gt;ChartDemoModule -->
<g id="edge9" class="edge"><title>CommonModule&#45;&gt;ChartDemoModule</title>
<path fill="none" stroke="black" d="M1377.88,-234C1384.29,-234 1388.58,-234 1388.58,-234 1388.58,-234 1388.58,-310 1388.58,-310 1388.58,-310 1389.67,-310 1389.67,-310"/>
<polygon fill="black" stroke="black" points="1389.42,-313.5 1399.42,-310 1389.42,-306.5 1389.42,-313.5"/>
</g>
<!-- ChartModule -->
<g id="node14" class="node"><title>ChartModule</title>
<polygon fill="#8dd3c7" stroke="black" points="1050.15,-187 1047.15,-191 1026.15,-191 1023.15,-187 959.847,-187 959.847,-151 1050.15,-151 1050.15,-187"/>
<text text-anchor="middle" x="1005" y="-164.8" font-family="Times,serif" font-size="14.00">ChartModule</text>
</g>
<!-- CommonModule&#45;&gt;ChartModule -->
<g id="edge13" class="edge"><title>CommonModule&#45;&gt;ChartModule</title>
<path fill="none" stroke="black" d="M1322,-215.977C1322,-198.627 1322,-175 1322,-175 1322,-175 1060.42,-175 1060.42,-175"/>
<polygon fill="black" stroke="black" points="1060.42,-171.5 1050.42,-175 1060.42,-178.5 1060.42,-171.5"/>
</g>
<!-- SharedModule -->
<g id="node19" class="node"><title>SharedModule</title>
<polygon fill="#8dd3c7" stroke="black" points="523.423,-328 520.423,-332 499.423,-332 496.423,-328 424.577,-328 424.577,-292 523.423,-292 523.423,-328"/>
<text text-anchor="middle" x="474" y="-305.8" font-family="Times,serif" font-size="14.00">SharedModule</text>
</g>
<!-- CommonModule&#45;&gt;SharedModule -->
<g id="edge19" class="edge"><title>CommonModule&#45;&gt;SharedModule</title>
<path fill="none" stroke="black" d="M1270.34,-252.058C1270.34,-256.495 1270.34,-260 1270.34,-260 1270.34,-260 474,-260 474,-260 474,-260 474,-281.949 474,-281.949"/>
<polygon fill="black" stroke="black" points="470.5,-281.949 474,-291.949 477.5,-281.949 470.5,-281.949"/>
</g>
<!-- RebirthChartModule -->
<g id="node11" class="node"><title>RebirthChartModule</title>
<polygon fill="#8dd3c7" stroke="black" points="1528.15,-252 1525.15,-256 1504.15,-256 1501.15,-252 1395.85,-252 1395.85,-216 1528.15,-216 1528.15,-252"/>
<text text-anchor="middle" x="1462" y="-229.8" font-family="Times,serif" font-size="14.00">RebirthChartModule</text>
</g>
<!-- RebirthChartModule&#45;&gt;ChartDemoModule -->
<g id="edge10" class="edge"><title>RebirthChartModule&#45;&gt;ChartDemoModule</title>
<path fill="none" stroke="black" d="M1474.49,-252.011C1474.49,-252.011 1474.49,-281.855 1474.49,-281.855"/>
<polygon fill="black" stroke="black" points="1470.99,-281.855 1474.49,-291.855 1477.99,-281.855 1470.99,-281.855"/>
</g>
<!-- ChartModule  -->
<g id="node16" class="node"><title>ChartModule </title>
<polygon fill="#fb8072" stroke="black" points="1788.15,-328 1693.85,-328 1693.85,-292 1788.15,-292 1788.15,-328"/>
<text text-anchor="middle" x="1741" y="-305.8" font-family="Times,serif" font-size="14.00">ChartModule </text>
</g>
<!-- RebirthChartModule&#45;&gt;ChartModule  -->
<g id="edge16" class="edge"><title>RebirthChartModule&#45;&gt;ChartModule </title>
<path fill="none" stroke="black" stroke-dasharray="5,2" d="M1499.46,-252.194C1499.46,-260.278 1499.46,-268 1499.46,-268 1499.46,-268 1743.2,-268 1743.2,-268 1743.2,-268 1743.2,-281.944 1743.2,-281.944"/>
<polygon fill="black" stroke="black" points="1739.7,-281.944 1743.2,-291.944 1746.7,-281.945 1739.7,-281.944"/>
</g>
<!-- RebirthChartModule&#45;&gt;SharedModule -->
<g id="edge23" class="edge"><title>RebirthChartModule&#45;&gt;SharedModule</title>
<path fill="none" stroke="black" d="M1424.54,-252.051C1424.54,-266.373 1424.54,-284 1424.54,-284 1424.54,-284 498.606,-284 498.606,-284 498.606,-284 498.606,-284.794 498.606,-284.794"/>
<polygon fill="black" stroke="black" points="495.106,-281.942 498.606,-291.942 502.106,-281.942 495.106,-281.942"/>
</g>
<!-- ChartComponent -->
<g id="node13" class="node"><title>ChartComponent</title>
<polygon fill="#ffffb3" stroke="black" points="1052.44,-122 939.564,-122 939.564,-86 1052.44,-86 1052.44,-122"/>
<text text-anchor="middle" x="996" y="-99.8" font-family="Times,serif" font-size="14.00">ChartComponent</text>
</g>
<!-- ChartComponent&#45;&gt;ChartModule -->
<g id="edge12" class="edge"><title>ChartComponent&#45;&gt;ChartModule</title>
<path fill="none" stroke="black" d="M1005,-122.106C1005,-122.106 1005,-140.991 1005,-140.991"/>
<polygon fill="black" stroke="black" points="1001.5,-140.991 1005,-150.991 1008.5,-140.991 1001.5,-140.991"/>
</g>
<!-- ChartModule&#45;&gt;RebirthChartModule -->
<g id="edge15" class="edge"><title>ChartModule&#45;&gt;RebirthChartModule</title>
<path fill="none" stroke="black" d="M1050.49,-163C1166.08,-163 1462,-163 1462,-163 1462,-163 1462,-205.716 1462,-205.716"/>
<polygon fill="black" stroke="black" points="1458.5,-205.716 1462,-215.716 1465.5,-205.716 1458.5,-205.716"/>
</g>
<!-- ChartComponent  -->
<g id="node15" class="node"><title>ChartComponent </title>
<polygon fill="#fb8072" stroke="black" points="1051.93,-252 936.065,-252 936.065,-216 1051.93,-216 1051.93,-252"/>
<text text-anchor="middle" x="994" y="-229.8" font-family="Times,serif" font-size="14.00">ChartComponent </text>
</g>
<!-- ChartModule&#45;&gt;ChartComponent  -->
<g id="edge14" class="edge"><title>ChartModule&#45;&gt;ChartComponent </title>
<path fill="none" stroke="black" stroke-dasharray="5,2" d="M1005,-187.106C1005,-187.106 1005,-205.991 1005,-205.991"/>
<polygon fill="black" stroke="black" points="1001.5,-205.991 1005,-215.991 1008.5,-205.991 1001.5,-205.991"/>
</g>
<!-- DocComponent -->
<g id="node17" class="node"><title>DocComponent</title>
<polygon fill="#ffffb3" stroke="black" points="671.154,-252 566.846,-252 566.846,-216 671.154,-216 671.154,-252"/>
<text text-anchor="middle" x="619" y="-229.8" font-family="Times,serif" font-size="14.00">DocComponent</text>
</g>
<!-- DocComponent&#45;&gt;SharedModule -->
<g id="edge17" class="edge"><title>DocComponent&#45;&gt;SharedModule</title>
<path fill="none" stroke="black" d="M612.625,-252.027C612.625,-272.767 612.625,-304 612.625,-304 612.625,-304 533.264,-304 533.264,-304"/>
<polygon fill="black" stroke="black" points="533.264,-300.5 523.264,-304 533.264,-307.5 533.264,-300.5"/>
</g>
<!-- DocContentComponent -->
<g id="node18" class="node"><title>DocContentComponent</title>
<polygon fill="#ffffb3" stroke="black" points="548.486,-252 399.514,-252 399.514,-216 548.486,-216 548.486,-252"/>
<text text-anchor="middle" x="474" y="-229.8" font-family="Times,serif" font-size="14.00">DocContentComponent</text>
</g>
<!-- DocContentComponent&#45;&gt;SharedModule -->
<g id="edge18" class="edge"><title>DocContentComponent&#45;&gt;SharedModule</title>
<path fill="none" stroke="black" d="M449.394,-252.011C449.394,-252.011 449.394,-281.855 449.394,-281.855"/>
<polygon fill="black" stroke="black" points="445.895,-281.855 449.394,-291.855 452.895,-281.855 445.895,-281.855"/>
</g>
<!-- CommonModule  -->
<g id="node23" class="node"><title>CommonModule </title>
<polygon fill="#fb8072" stroke="black" points="412.668,-396 297.332,-396 297.332,-360 412.668,-360 412.668,-396"/>
<text text-anchor="middle" x="355" y="-373.8" font-family="Times,serif" font-size="14.00">CommonModule </text>
</g>
<!-- SharedModule&#45;&gt;CommonModule  -->
<g id="edge24" class="edge"><title>SharedModule&#45;&gt;CommonModule </title>
<path fill="none" stroke="black" stroke-dasharray="5,2" d="M424.614,-322C414.075,-322 406.045,-322 406.045,-322 406.045,-322 406.045,-349.973 406.045,-349.973"/>
<polygon fill="black" stroke="black" points="402.545,-349.973 406.045,-359.973 409.545,-349.973 402.545,-349.973"/>
</g>
<!-- FormsModule  -->
<g id="node24" class="node"><title>FormsModule </title>
<polygon fill="#fb8072" stroke="black" points="279.328,-396 180.672,-396 180.672,-360 279.328,-360 279.328,-396"/>
<text text-anchor="middle" x="230" y="-373.8" font-family="Times,serif" font-size="14.00">FormsModule </text>
</g>
<!-- SharedModule&#45;&gt;FormsModule  -->
<g id="edge25" class="edge"><title>SharedModule&#45;&gt;FormsModule </title>
<path fill="none" stroke="black" stroke-dasharray="5,2" d="M424.643,-316C363.991,-316 269.026,-316 269.026,-316 269.026,-316 269.026,-349.733 269.026,-349.733"/>
<polygon fill="black" stroke="black" points="265.526,-349.733 269.026,-359.733 272.526,-349.733 265.526,-349.733"/>
</g>
<!-- RouterModule  -->
<g id="node25" class="node"><title>RouterModule </title>
<polygon fill="#fb8072" stroke="black" points="658.652,-396 557.348,-396 557.348,-360 658.652,-360 658.652,-396"/>
<text text-anchor="middle" x="608" y="-373.8" font-family="Times,serif" font-size="14.00">RouterModule </text>
</g>
<!-- SharedModule&#45;&gt;RouterModule  -->
<g id="edge26" class="edge"><title>SharedModule&#45;&gt;RouterModule </title>
<path fill="none" stroke="black" stroke-dasharray="5,2" d="M523.429,-316C543.5,-316 562.049,-316 562.049,-316 562.049,-316 562.049,-349.733 562.049,-349.733"/>
<polygon fill="black" stroke="black" points="558.549,-349.733 562.049,-359.733 565.549,-349.733 558.549,-349.733"/>
</g>
<!-- DocComponent  -->
<g id="node26" class="node"><title>DocComponent </title>
<polygon fill="#fb8072" stroke="black" points="539.154,-396 430.846,-396 430.846,-360 539.154,-360 539.154,-396"/>
<text text-anchor="middle" x="485" y="-373.8" font-family="Times,serif" font-size="14.00">DocComponent </text>
</g>
<!-- SharedModule&#45;&gt;DocComponent  -->
<g id="edge27" class="edge"><title>SharedModule&#45;&gt;DocComponent </title>
<path fill="none" stroke="black" stroke-dasharray="5,2" d="M477.067,-328.223C477.067,-328.223 477.067,-349.727 477.067,-349.727"/>
<polygon fill="black" stroke="black" points="473.567,-349.727 477.067,-359.727 480.567,-349.727 473.567,-349.727"/>
</g>
<!-- FormsModule -->
<g id="node20" class="node"><title>FormsModule</title>
<polygon fill="#8dd3c7" stroke="black" points="119.829,-252 116.829,-256 95.8288,-256 92.8288,-252 24.1712,-252 24.1712,-216 119.829,-216 119.829,-252"/>
<text text-anchor="middle" x="72" y="-229.8" font-family="Times,serif" font-size="14.00">FormsModule</text>
</g>
<!-- FormsModule&#45;&gt;SharedModule -->
<g id="edge20" class="edge"><title>FormsModule&#45;&gt;SharedModule</title>
<path fill="none" stroke="black" d="M72,-252.011C72,-274.485 72,-310 72,-310 72,-310 414.707,-310 414.707,-310"/>
<polygon fill="black" stroke="black" points="414.707,-313.5 424.707,-310 414.707,-306.5 414.707,-313.5"/>
</g>
<!-- RouterModule -->
<g id="node21" class="node"><title>RouterModule</title>
<polygon fill="#8dd3c7" stroke="black" points="375.653,-252 372.653,-256 351.653,-256 348.653,-252 278.347,-252 278.347,-216 375.653,-216 375.653,-252"/>
<text text-anchor="middle" x="327" y="-229.8" font-family="Times,serif" font-size="14.00">RouterModule</text>
</g>
<!-- RouterModule&#45;&gt;SharedModule -->
<g id="edge21" class="edge"><title>RouterModule&#45;&gt;SharedModule</title>
<path fill="none" stroke="black" d="M336.621,-252.169C336.621,-271.09 336.621,-298 336.621,-298 336.621,-298 414.403,-298 414.403,-298"/>
<polygon fill="black" stroke="black" points="414.403,-301.5 424.403,-298 414.403,-294.5 414.403,-301.5"/>
</g>
<!-- RebirthNGModule -->
<g id="node22" class="node"><title>RebirthNGModule</title>
<polygon fill="#8dd3c7" stroke="black" points="259.756,-252 256.756,-256 235.756,-256 232.756,-252 138.244,-252 138.244,-216 259.756,-216 259.756,-252"/>
<text text-anchor="middle" x="199" y="-229.8" font-family="Times,serif" font-size="14.00">RebirthNGModule</text>
</g>
<!-- RebirthNGModule&#45;&gt;SharedModule -->
<g id="edge22" class="edge"><title>RebirthNGModule&#45;&gt;SharedModule</title>
<path fill="none" stroke="black" d="M220.232,-252.027C220.232,-272.767 220.232,-304 220.232,-304 220.232,-304 414.77,-304 414.77,-304"/>
<polygon fill="black" stroke="black" points="414.77,-307.5 424.77,-304 414.77,-300.5 414.77,-307.5"/>
</g>
</g>
</svg>
